<?xml version="1.0" standalone="no"?>
<!DOCTYPE svg PUBLIC "-//W3C//DTD SVG 20010904//EN"
 "http://www.w3.org/TR/2001/REC-SVG-20010904/DTD/svg10.dtd">
<svg version="1.0" xmlns="http://www.w3.org/2000/svg"
 width="360.000000pt" height="360.000000pt" viewBox="0 0 360.000000 360.000000"
 preserveAspectRatio="xMidYMid meet">
<metadata>
Created by potrace 1.11, written by Peter Selinger 2001-2013
</metadata>
<g transform="translate(0.000000,360.000000) scale(0.100000,-0.100000)"
fill="#000000" stroke="none">
<path d="M1779 3586 c-21 -12 -419 -232 -509 -283 -19 -11 -57 -32 -85 -48
-27 -15 -129 -72 -225 -125 -96 -54 -251 -140 -345 -192 -93 -52 -195 -109
-225 -125 -30 -17 -80 -44 -110 -61 l-55 -31 -3 -1360 -2 -1361 1580 0 1580 0
0 1359 0 1359 -32 20 c-55 34 -182 103 -200 109 -10 3 -18 9 -18 14 0 5 -4 9
-9 9 -9 0 -30 12 -426 232 -143 80 -282 158 -310 173 -27 15 -86 48 -130 73
-44 25 -98 55 -120 67 -61 33 -151 83 -240 133 -44 24 -83 46 -86 48 -3 2 -16
-3 -30 -10z m526 -2128 c0 -510 0 -517 -20 -520 -17 -3 -972 -2 -1016 1 -15 1
-17 47 -17 521 l1 519 526 -2 526 -2 0 -517z"/>
</g>
</svg>
